HIERARCHY
ROOT hip
{
  OFFSET 0 0 0
  CHANNELS 6 Xposition Yposition Zposition Zrotation Yrotation Xrotation
  JOINT abdomen
  {
    OFFSET 0 20.6881 -0.73152
    CHANNELS 3 Zrotation Xrotation Yrotation
    JOINT chest
    {
      OFFSET 0 11.7043 -0.48768
      CHANNELS 3 Zrotation Xrotation Yrotation
      JOINT neck
      {
        OFFSET 0 22.1894 -2.19456
        CHANNELS 3 Zrotation Xrotation Yrotation
        JOINT head
        {
          OFFSET -0.24384 7.07133 1.2192
          CHANNELS 3 Zrotation Xrotation Yrotation
          JOINT leftEye
          {
            OFFSET 4.14528 8.04674 8.04672
            CHANNELS 3 Zrotation Xrotation Yrotation
            End Site
            {
              OFFSET 1 0 0
            }
          }
          JOINT rightEye
          {
            OFFSET -3.6576 8.04674 8.04672
            CHANNELS 3 Zrotation Xrotation Yrotation
            End Site
            {
              OFFSET 1 0 0
            }
          }
        }
      }
      JOINT rCollar
      {
        OFFSET -2.68224 19.2634 -4.8768
        CHANNELS 3 Zrotation Xrotation Yrotation
        JOINT rShldr
        {
          OFFSET -8.77824 -1.95073 1.46304
          CHANNELS 3 Zrotation Xrotation Yrotation
          JOINT rForeArm
          {
            OFFSET -28.1742 -1.7115 0.48768
            CHANNELS 3 Zrotation Xrotation Yrotation
            JOINT rHand
            {
              OFFSET -22.5879 0.773209 7.07136
              CHANNELS 3 Zrotation Xrotation Yrotation
              JOINT rThumb1
              {
                OFFSET -1.2192 -0.487915 3.41376
                CHANNELS 3 Zrotation Xrotation Yrotation
                JOINT rThumb2
                {
                  OFFSET -3.37035 -0.52449 3.41376
                  CHANNELS 3 Zrotation Xrotation Yrotation
                  End Site
                  {
                    OFFSET -1.78271 -1.18214 1.43049
                  }
                }
              }
              JOINT rIndex1
              {
                OFFSET -7.75947 0.938293 5.60832
                CHANNELS 3 Zrotation Xrotation Yrotation
                JOINT rIndex2
                {
                  OFFSET -2.54057 -0.884171 1.56538
                  CHANNELS 3 Zrotation Xrotation Yrotation
                  End Site
                  {
                    OFFSET -1.62519 -0.234802 1.16502
                  }
                }
              }
              JOINT rMid1
              {
                OFFSET -8.24714 1.18213 3.41376
                CHANNELS 3 Zrotation Xrotation Yrotation
                JOINT rMid2
                {
                  OFFSET -3.10165 -0.590103 1.0647
                  CHANNELS 3 Zrotation Xrotation Yrotation
                  End Site
                  {
                    OFFSET -2.48547 -0.328903 0.83742
                  }
                }
              }
              JOINT rRing1
              {
                OFFSET -8.82822 0.546677 1.51678
                CHANNELS 3 Zrotation Xrotation Yrotation
                JOINT rRing2
                {
                  OFFSET -2.60934 -0.819778 -0.0198488
                  CHANNELS 3 Zrotation Xrotation Yrotation
                  End Site
                  {
                    OFFSET -2.33842 -0.294052 0.168128
                  }
                }
              }
              JOINT rPinky1
              {
                OFFSET -8.27202 -0.0477905 -0.4584
                CHANNELS 3 Zrotation Xrotation Yrotation
                JOINT rPinky2
                {
                  OFFSET -1.82734 -0.647385 -0.700984
                  CHANNELS 3 Zrotation Xrotation Yrotation
                  End Site
                  {
                    OFFSET -1.69225 -0.51767 -0.607171
                  }
                }
              }
            }
          }
        }
      }
      JOINT lCollar
      {
        OFFSET 2.68224 19.2634 -4.8768
        CHANNELS 3 Zrotation Xrotation Yrotation
        JOINT lShldr
        {
          OFFSET 8.77824 -1.95073 1.46304
          CHANNELS 3 Zrotation Xrotation Yrotation
          JOINT lForeArm
          {
            OFFSET 28.1742 -1.7115 0.48768
            CHANNELS 3 Zrotation Xrotation Yrotation
            JOINT lHand
            {
              OFFSET 22.5879 0.773209 7.07136
              CHANNELS 3 Zrotation Xrotation Yrotation
              JOINT lThumb1
              {
                OFFSET 1.2192 -0.487915 3.41376
                CHANNELS 3 Zrotation Xrotation Yrotation
                JOINT lThumb2
                {
                  OFFSET 3.37035 -0.52449 3.41376
                  CHANNELS 3 Zrotation Xrotation Yrotation
                  End Site
                  {
                    OFFSET 1.78271 -1.18214 1.43049
                  }
                }
              }
              JOINT lIndex1
              {
                OFFSET 7.75947 0.938293 5.60832
                CHANNELS 3 Zrotation Xrotation Yrotation
                JOINT lIndex2
                {
                  OFFSET 2.54057 -0.884171 1.56538
                  CHANNELS 3 Zrotation Xrotation Yrotation
                  End Site
                  {
                    OFFSET 1.62519 -0.234802 1.16502
                  }
                }
              }
              JOINT lMid1
              {
                OFFSET 8.24714 1.18213 3.41376
                CHANNELS 3 Zrotation Xrotation Yrotation
                JOINT lMid2
                {
                  OFFSET 3.10165 -0.590103 1.0647
                  CHANNELS 3 Zrotation Xrotation Yrotation
                  End Site
                  {
                    OFFSET 2.48547 -0.328903 0.83742
                  }
                }
              }
              JOINT lRing1
              {
                OFFSET 8.82822 0.546677 1.51678
                CHANNELS 3 Zrotation Xrotation Yrotation
                JOINT lRing2
                {
                  OFFSET 2.60934 -0.819778 -0.0198488
                  CHANNELS 3 Zrotation Xrotation Yrotation
                  End Site
                  {
                    OFFSET 2.33842 -0.294052 0.168128
                  }
                }
              }
              JOINT lPinky1
              {
                OFFSET 8.27202 -0.0477905 -0.4584
                CHANNELS 3 Zrotation Xrotation Yrotation
                JOINT lPinky2
                {
                  OFFSET 1.82734 -0.647385 -0.700984
                  CHANNELS 3 Zrotation Xrotation Yrotation
                  End Site
                  {
                    OFFSET 1.69225 -0.51767 -0.607171
                  }
                }
              }
            }
          }
        }
      }
    }
  }
  JOINT rButtock
  {
    OFFSET -8.77824 4.35084 1.2192
    CHANNELS 3 Zrotation Xrotation Yrotation
    JOINT rThigh
    {
      OFFSET 0 -1.70687 -2.19456
      CHANNELS 3 Zrotation Xrotation Yrotation
      JOINT rShin
      {
        OFFSET 0 -36.8199 0.73152
        CHANNELS 3 Zrotation Xrotation Yrotation
        JOINT rFoot
        {
          OFFSET 0.73152 -45.1104 -5.12064
          CHANNELS 3 Zrotation Xrotation Yrotation
          End Site
          {
            OFFSET -1.1221 -3.69964 12.103
          }
        }
      }
    }
  }
  JOINT lButtock
  {
    OFFSET 8.77824 4.35084 1.2192
    CHANNELS 3 Zrotation Xrotation Yrotation
    JOINT lThigh
    {
      OFFSET 0 -1.70687 -2.19456
      CHANNELS 3 Zrotation Xrotation Yrotation
      JOINT lShin
      {
        OFFSET 0 -36.8199 0.73152
        CHANNELS 3 Zrotation Xrotation Yrotation
        JOINT lFoot
        {
          OFFSET -0.73152 -45.1104 -5.12064
          CHANNELS 3 Zrotation Xrotation Yrotation
          End Site
          {
            OFFSET 1.1221 -3.69964 12.103
          }
        }
      }
    }
  }
}
MOTION
Frames:	4
Frame Time:	0.00833333
3.95559 80.5237 27.2297 5.0874 7.0083 4.5199 -9.0139 13.1226 7.22895 0.190961 -5.04865 1.33036 -11.1227 -3.75778 -6.83527 17.3939 -13.1674 -7.85569 -0.0 0.0 0.0 -0.0 0.0 0.0 3.12856e-13 -2.49674e-13 1.44119e-14 94.3015 45.7443 -19.98 -27.1469 -43.6093 90.6731 -0.165886 -11.5303 -1.64294 9.81077e-10 5.03845e-09 -7.94388e-10 1.70759e-09 8.68183e-09 -1.37033e-09 9.81081e-10 5.03844e-09 -7.94391e-10 7.73091 5.47488 0.417314 9.81076e-10 5.03845e-09 -7.94394e-10 2.90554 0.965183 0.102902 9.81079e-10 5.03845e-09 -7.94392e-10 10.2786 0.731801 0.0259123 9.81071e-10 5.03845e-09 -7.94388e-10 2.22167 -0.733487 -0.20892 3.12939e-13 -2.49673e-13 1.42131e-14 -93.8511 46.4062 14.4585 -24.5814 -48.611 101.389 1.33438 -30.9011 4.82517 1.78546e-09 -1.1474e-08 1.88508e-10 3.08551e-09 -2.03368e-08 3.6415e-10 1.78545e-09 -1.1474e-08 1.88511e-10 -7.73091 5.47488 -0.417314 1.78546e-09 -1.1474e-08 1.88499e-10 -2.90554 0.965183 -0.102902 1.78545e-09 -1.1474e-08 1.88506e-10 -10.2786 0.731801 -0.0259123 1.78546e-09 -1.1474e-08 1.88496e-10 -2.22167 -0.733487 0.20892 -2.03217e-16 0.0 -3.88251e-19 -16.5501 -30.1898 -13.9223 -173.797 77.3149 173.756 1.12009 28.6498 -4.05753 2.03217e-16 0.0 3.88251e-19 -16.8491 -33.2917 -5.26322 0.802632 50.7497 0.114691 -0.131508 -15.1288 -0.693981
4.07062 80.2619 30.4252 5.9103 6.0941 4.7113 -9.8633 12.9633 7.09019 0.361522 -5.23886 1.29189 -10.9997 -3.8956 -6.67406 17.3992 -13.0819 -7.56203 -0.0 0.0 0.0 -0.0 0.0 0.0 2.34068e-13 -2.10066e-13 7.51926e-15 95.9522 45.0342 -21.8702 -27.2924 -43.0664 89.7414 -0.171725 -11.7279 -1.67191 7.43585e-10 5.72793e-09 -9.85331e-10 1.29822e-09 9.87275e-09 -1.70184e-09 7.43588e-10 5.72792e-09 -9.85333e-10 7.73091 5.47488 0.417314 7.43587e-10 5.72793e-09 -9.85336e-10 2.90554 0.965183 0.102902 7.43588e-10 5.72793e-09 -9.85335e-10 10.2786 0.731801 0.0259123 7.43579e-10 5.72794e-09 -9.8533e-10 2.22167 -0.733487 -0.20892 2.34146e-13 -2.10065e-13 7.36008e-15 -91.9906 47.1743 11.1086 -24.3249 -48.9654 102.239 1.36341 -31.1756 4.87884 1.4597e-09 -9.57651e-09 4.12775e-10 2.51653e-09 -1.69334e-08 7.45118e-10 1.4597e-09 -9.57651e-09 4.1278e-10 -7.73091 5.47488 -0.417314 1.4597e-09 -9.57652e-09 4.1277e-10 -2.90554 0.965183 -0.102902 1.45969e-09 -9.57651e-09 4.12777e-10 -10.2786 0.731801 -0.0259123 1.4597e-09 -9.57651e-09 4.12768e-10 -2.22167 -0.733487 0.20892 -2.03217e-16 0.0 -3.88251e-19 -18.8994 -34.052 -15.4086 -174.47 75.4788 174.479 0.82308 27.2472 -3.2934 2.03217e-16 0.0 3.88251e-19 -16.9336 -31.3053 -4.8648 0.786584 51.1204 -0.0849578 0.558281 -16.9669 1.05906
3.93541 80.1397 33.7599 5.8734 5.257 4.8118 -10.5468 12.7323 7.0268 0.542196 -5.42946 1.28877 -10.8935 -3.9477 -6.50714 17.4387 -13.0476 -7.25665 -0.0 0.0 0.0 -0.0 0.0 0.0 8.49995e-14 -1.31794e-13 -1.07188e-14 97.6343 44.2127 -23.9175 -27.3869 -42.7629 89.1599 -0.185511 -12.1747 -1.73761 2.63196e-10 6.3955e-09 -1.25002e-09 4.68804e-10 1.10294e-08 -2.16216e-09 2.63197e-10 6.3955e-09 -1.25002e-09 7.73091 5.47488 0.417314 2.63201e-10 6.3955e-09 -1.25002e-09 2.90554 0.965183 0.102902 2.632e-10 6.39551e-09 -1.25002e-09 10.2786 0.731801 0.0259123 2.63191e-10 6.39551e-09 -1.25001e-09 2.22167 -0.733487 -0.20892 8.50602e-14 -1.31794e-13 -1.08244e-14 -90.0104 47.8683 7.71328 -24.0461 -49.3271 103.135 1.35864 -31.1297 4.86991 8.35539e-10 -5.66106e-09 7.84284e-10 1.42777e-09 -9.93851e-09 1.3744e-09 8.35538e-10 -5.66106e-09 7.8429e-10 -7.73091 5.47488 -0.417314 8.3554e-10 -5.66107e-09 7.84285e-10 -2.90554 0.965183 -0.102902 8.3553e-10 -5.66106e-09 7.8429e-10 -10.2786 0.731801 -0.0259123 8.3554e-10 -5.66106e-09 7.84285e-10 -2.22167 -0.733487 0.20892 -2.03217e-16 0.0 -3.88251e-19 -20.9101 -37.7772 -16.8864 -174.849 74.2508 174.93 0.599918 25.2572 -2.81865 2.03217e-16 0.0 3.88251e-19 -16.6794 -28.8374 -4.15354 0.725503 50.8584 -0.284429 1.26074 -18.5742 2.5664
3.64548 80.116 37.171 5.3349 4.5252 5.1092 -11.0136 12.4564 6.82086 0.741672 -5.61868 1.25829 -10.7885 -3.98567 -6.30591 17.4361 -12.9882 -6.89294 -0.0 0.0 0.0 -0.0 0.0 0.0 -7.13893e-14 -4.28878e-14 -3.19092e-14 99.1919 43.4092 -25.9838 -27.4375 -42.6594 88.8954 -0.2046 -12.7682 -1.82519 -2.30719e-10 6.57846e-09 -1.41641e-09 -3.85215e-10 1.1352e-08 -2.45243e-09 -2.3072e-10 6.57847e-09 -1.41641e-09 7.73091 5.47488 0.417314 -2.30711e-10 6.57845e-09 -1.41641e-09 2.90554 0.965183 0.102902 -2.30715e-10 6.57847e-09 -1.41641e-09 10.2786 0.731801 0.0259123 -2.30724e-10 6.57847e-09 -1.4164e-09 2.22167 -0.733487 -0.20892 -7.13506e-14 -4.28875e-14 -3.19706e-14 -88.0935 48.378 4.46008 -23.7298 -49.7249 104.125 1.33832 -30.9349 4.83196 1.62899e-10 -1.42288e-09 1.1163e-09 2.56004e-10 -2.38061e-09 1.93437e-09 1.62897e-10 -1.42288e-09 1.11631e-09 -7.73091 5.47488 -0.417314 1.629e-10 -1.42288e-09 1.11631e-09 -2.90554 0.965183 -0.102902 1.62888e-10 -1.42288e-09 1.11631e-09 -10.2786 0.731801 -0.0259123 1.629e-10 -1.42287e-09 1.11631e-09 -2.22167 -0.733487 0.20892 -2.03217e-16 0.0 -3.88251e-19 -22.7143 -41.204 -18.438 -175.025 73.6525 175.191 0.41749 23.117 -2.44745 2.03217e-16 0.0 3.88251e-19 -16.3408 -26.1351 -3.46154 0.642859 50.2175 -0.474922 1.88144 -19.7182 3.74355
